<svg xmlns="http://www.w3.org/2000/svg" viewBox="0 0 128 128">
  <path fill="#3776AB" d="M64.2 12.3c-25.5 0-24.5 11-24.5 11v12.3h25.4v3.6H35.8c-17.3 0-20.1 11.2-20.1 25.4 0 14.3 3.5 24.2 18.5 24.2h8.7V75.6c0-13.6 11.3-24.8 25.1-24.8h24.5V37.6c0-15.1-11.8-25.3-28.3-25.3zm-13.1 8c2.4 0 4.4 2 4.4 4.4 0 2.4-2 4.4-4.4 4.4-2.4 0-4.4-2-4.4-4.4 0-2.4 2-4.4 4.4-4.4z"/>
  <path fill="#FFD43B" d="M63.8 115.7c25.5 0 24.5-11 24.5-11V92.4H62.9v-3.6h29.3c17.3 0 20.1-11.2 20.1-25.4 0-14.3-3.5-24.2-18.5-24.2h-8.7v13.2c0 13.6-11.3 24.8-25.1 24.8H35.5v13.2c0 15.1 11.8 25.3 28.3 25.3zm13.1-8c-2.4 0-4.4-2-4.4-4.4 0-2.4 2-4.4 4.4-4.4 2.4 0 4.4 2 4.4 4.4 0 2.4-2 4.4-4.4 4.4z"/>
</svg>
